#!OML:ASF F:\VICON\USERDATA\INSTALL\rory3\rory3.ASF
:FULLY-SPECIFIED
:DEGREES
78
root 1.07828 17.2223 -15.5514 17.8959 -2.07789 -0.0233688
lowerback 16.1781 -0.136888 -0.913341
upperback 1.2678 -0.159831 2.27608
thorax -7.71648 -0.00700778 2.99524
lowerneck -18.3725 -3.29673 -9.07004
upperneck 23.4288 -3.25241 5.1421
head 10.8382 -1.66617 2.90283
rclavicle -5.96354e-016 -1.90833e-014
rhumerus -31.1927 1.78255 -84.9339
rradius 66.192
rwrist -4.10893
rhand -11.0846 16.4361
rfingers 7.12502
rthumb 14.939 -13.0052
lclavicle -5.96354e-016 -1.90833e-014
lhumerus -31.0053 -0.474283 86.4562
lradius 59.675
lwrist 2.13908
lhand -19.6715 20.7833
lfingers 7.12502
lthumb 6.65692 50.6586
rfemur -37.4425 3.2972 22.1326
rtibia 42.1489
rfoot -18.6937 -7.63621
rtoes 1.04789
lfemur -38.3311 -0.326774 -22.3501
ltibia 41.1289
lfoot -18.8646 1.92342
ltoes 0.886654
79
root 1.07988 17.1889 -15.5659 18.5081 -2.10088 -0.133386
lowerback 16.4724 -0.0915002 -0.854561
upperback 1.23661 -0.086077 2.29891
thorax -7.91817 0.0298031 2.97487
lowerneck -18.5631 -3.29743 -8.96792
upperneck 23.1383 -3.2427 5.08707
head 10.7636 -1.6529 2.86135
rclavicle 6.16232e-015 -6.75868e-015
rhumerus -30.9907 2.01001 -84.9621
rradius 66.6055
rwrist -4.26373
rhand -11.0303 17.2173
rfingers 7.12502
rthumb 14.9913 -12.22
lclavicle 6.16232e-015 -6.75868e-015
lhumerus -30.8325 -0.77418 86.4377
lradius 59.9987
lwrist 2.25375
lhand -20.2752 18.7192
lfingers 7.12502
lthumb 6.07416 48.6121
rfemur -38.6069 3.42785 22.2153
rtibia 42.9636
rfoot -18.948 -7.81286
rtoes 0.774396
lfemur -39.4971 -0.238108 -22.263
ltibia 41.8888
lfoot -19.1775 1.97861
ltoes 0.736626
80
root 1.08105 17.1517 -15.5862 19.071 -2.18284 -0.142392
lowerback 16.9452 -0.0509868 -0.886189
upperback 1.18322 -0.0368109 2.29271
thorax -8.24172 0.0590864 2.98307
lowerneck -18.7242 -3.33351 -9.00554
upperneck 22.8818 -3.25974 5.0912
head 10.7023 -1.65796 2.86167
rclavicle 1.55052e-014 -1.39149e-014
rhumerus -30.8391 2.26352 -85.0037
rradius 67.147
rwrist -4.54024
rhand -10.9353 17.1894
rfingers 7.12502
rthumb 15.0828 -12.2411
lclavicle 1.55052e-014 -1.39149e-014
lhumerus -30.6813 -0.946006 86.4117
lradius 60.3351
lwrist 2.32424
lhand -17.5298 23.7595
lfingers 7.12502
lthumb 8.72414 53.5592
rfemur -39.7915 3.56505 22.1796
rtibia 43.806
rfoot -19.1265 -7.96016
rtoes 0.556463
lfemur -40.6608 -0.168255 -22.2824
ltibia 42.7055
lfoot -19.3921 2.01776
ltoes 1.14712
81
root 1.08467 17.1119 -15.6023 19.6309 -2.02927 -0.146674
lowerback 17.2684 -0.125313 -0.783032
upperback 1.20052 -0.110484 2.33124
thorax -8.39837 0.0225906 2.98844
lowerneck -18.9489 -3.36662 -9.17106
upperneck 22.6649 -3.24604 5.16397
head 10.6691 -1.6516 2.9134
rclavicle 5.56597e-015 -2.90226e-014
rhumerus -30.4347 2.54747 -85.0154
rradius 67.4694
rwrist -4.87572
rhand -10.8284 16.9962
rfingers 7.12502
rthumb 15.1858 -12.4265
lclavicle 5.56597e-015 -2.90226e-014
lhumerus -30.4335 -0.941859 86.3861
lradius 60.6114
lwrist 2.28968
lhand -21.1617 20.5324
lfingers 7.12502
lthumb 5.21823 50.4481
rfemur -40.9492 3.40161 22.2178
rtibia 44.7091
rfoot -19.3444 -8.01214
rtoes 0.87723
lfemur -41.8302 -0.20895 -22.2947
ltibia 43.57
lfoot -19.7113 1.99064
ltoes 0.966501
82
root 1.08492 17.0686 -15.6231 20.2735 -1.8771 -0.24386
lowerback 17.598 -0.147348 -0.648029
upperback 1.16482 -0.105962 2.38325
thorax -8.62101 0.0238754 2.97293
lowerneck -19.1465 -3.35751 -9.22765
upperneck 22.3109 -3.21439 5.27166
head 10.577 -1.62175 2.96023
rclavicle 5.96354e-016 -2.82274e-014
rhumerus -30.0056 2.77661 -84.9915
rradius 67.6084
rwrist -5.15531
rhand -10.7723 17.5139
rfingers 7.12502
rthumb 15.2398 -11.9048
lclavicle 5.96354e-016 -2.82274e-014
lhumerus -30.2298 -1.10632 86.3614
lradius 60.8873
lwrist 2.12437
lhand -21.2153 20.9201
lfingers 7.12502
lthumb 5.16642 50.8372
rfemur -42.2655 3.39813 22.3418
rtibia 45.6677
rfoot -19.5136 -8.19114
rtoes 1.06258
lfemur -43.161 -0.222848 -22.1871
ltibia 44.4753
lfoot -20.0195 1.98836
ltoes 0.715643
83
root 1.08009 17.0118 -15.6561 20.9282 -1.93385 -0.173731
lowerback 18.1578 -0.0877667 -0.908035
upperback 1.02861 -0.0723409 2.40704
thorax -9.08334 0.0583042 3.15164
lowerneck -19.2931 -3.30756 -9.07759
upperneck 21.9312 -3.14571 5.19352
head 10.456 -1.58014 2.91031
rclavicle 4.17448e-015 2.54444e-014
rhumerus -29.9186 3.11736 -84.9817
rradius 68.0475
rwrist -5.19296
rhand -10.8794 18.0067
rfingers 7.12502
rthumb 15.1367 -11.4197
lclavicle 4.17448e-015 2.54444e-014
lhumerus -30.0831 -1.23257 86.326
lradius 60.965
lwrist 1.91624
lhand -19.6079 22.6346
lfingers 7.12502
lthumb 6.71834 52.508
rfemur -43.7546 3.72226 22.1971
rtibia 46.6411
rfoot -19.6335 -8.60276
rtoes 0.661614
lfemur -44.5946 -0.187383 -22.2557
ltibia 45.365
lfoot -20.1893 2.04393
ltoes 0.634542
84
root 1.07933 16.9565 -15.6758 21.4843 -1.93173 -0.0734027
lowerback 18.6684 -0.0617045 -1.04549
upperback 0.976055 -0.0657638 2.39151
thorax -9.4258 0.0724526 3.22197
lowerneck -19.5533 -3.31124 -8.94755
upperneck 21.6593 -3.13377 5.09775
head 10.401 -1.56837 2.85045
rclavicle -2.38542e-015 -1.98785e-015
rhumerus -29.8555 3.32866 -84.9952
rradius 68.5436
rwrist -5.084
rhand -11.0242 17.7976
rfingers 7.12502
rthumb 14.9972 -11.6393
lclavicle -2.38542e-015 -1.98785e-015
lhumerus -29.857 -1.39215 86.3148
lradius 60.9784
lwrist 1.93831
lhand -18.7287 23.5294
lfingers 7.12502
lthumb 7.56704 53.374
rfemur -45.0139 3.86807 22.0401
rtibia 47.57
rfoot -19.9649 -8.85092
rtoes 0.786649
lfemur -45.8044 -0.117771 -22.3942
ltibia 46.1966
lfoot -20.4507 1.90761
ltoes 0.971212
85
root 1.08497 16.9236 -15.6688 22.0293 -1.84926 -0.0446821
lowerback 18.873 -0.0637657 -0.86136
upperback 0.995206 -0.0364025 2.31894
thorax -9.52036 0.0777056 3.03235
lowerneck -19.8609 -3.40216 -8.99823
upperneck 21.4953 -3.24661 5.23962
head 10.4113 -1.60101 2.88961
rclavicle -3.18055e-015 4.37326e-015
rhumerus -29.6347 3.30876 -85.0028
rradius 68.807
rwrist -4.96461
rhand -11.1287 17.8116
rfingers 7.12502
rthumb 14.8965 -11.6328
lclavicle -3.18055e-015 4.37326e-015
lhumerus -29.535 -1.69633 86.2902
lradius 61.0121
lwrist 1.99026
lhand -18.2914 23.8895
lfingers 7.12502
lthumb 7.98914 53.7185
rfemur -45.9926 3.75026 22.0043
rtibia 48.4391
rfoot -20.4502 -8.87248
rtoes 1.21475
lfemur -46.767 -0.113738 -22.4888
ltibia 46.9698
lfoot -20.889 1.73138
ltoes 0.999827
86
root 1.09241 16.8987 -15.6512 22.6747 -1.757 -0.0238146
lowerback 18.7444 -0.102862 -0.617436
upperback 1.04233 -0.047654 2.2159
thorax -9.39607 0.057207 2.77971
lowerneck -20.0106 -3.52268 -9.10908
upperneck 21.172 -3.43202 5.5391
head 10.3444 -1.65318 2.98299
rclavicle -1.98785e-015 6.36111e-015
rhumerus -29.2889 3.36213 -85.0671
rradius 68.9838
rwrist -4.91293
rhand -11.2539 18.0741
rfingers 7.12502
rthumb 14.7759 -11.3792
lclavicle -1.98785e-015 6.36111e-015
lhumerus -28.994 -1.90157 86.1656
lradius 60.878
lwrist 1.86284
lhand -18.7076 23.7453
lfingers 7.12502
lthumb 7.58743 53.5892
rfemur -47.0084 3.53124 22.0146
rtibia 49.2874
rfoot -20.8592 -8.95361
rtoes 1.0128
lfemur -47.7776 -0.181565 -22.5761
ltibia 47.7673
lfoot -21.4554 1.68025
ltoes 0.735638
87
root 1.09793 16.8534 -15.6431 23.5145 -1.76883 0.000443622
lowerback 18.4847 -0.124123 -0.51832
upperback 0.971149 -0.0642247 2.12471
thorax -9.32919 0.0426113 2.62467
lowerneck -19.9694 -3.53065 -8.97417
upperneck 20.8069 -3.50177 5.63312
head 10.2093 -1.65962 2.97864
rclavicle 7.95139e-015 -1.19271e-015
rhumerus -29.0357 3.54328 -85.2015
rradius 69.1262
rwrist -4.92442
rhand -11.3182 17.9487
rfingers 7.12502
rthumb 14.714 -11.5091
lclavicle 7.95139e-015 -1.19271e-015
lhumerus -28.6943 -2.10963 86.0028
lradius 60.86
lwrist 1.87904
lhand -19.796 21.3677
lfingers 7.12502
lthumb 6.53676 51.2469
rfemur -48.3664 3.4147 21.9898
rtibia 50.1571
rfoot -20.9803 -9.06469
rtoes 0.453033
lfemur -49.113 -0.207795 -22.6752
ltibia 48.5372
lfoot -21.8266 1.8507
ltoes 0.830344
88
root 1.10848 16.7881 -15.6483 24.7031 -2.06399 -0.116979
lowerback 18.0441 -0.00130839 -0.421624
upperback 0.767128 0.110134 2.05122
thorax -9.31623 0.12068 2.44104
lowerneck -20.0252 -3.57919 -8.8669
upperneck 20.5814 -3.59054 5.63491
head 10.1435 -1.68837 2.94458
rclavicle -6.16232e-015 2.14687e-014
rhumerus -28.7876 3.59078 -85.2507
rradius 69.1803
rwrist -4.92382
rhand -11.0483 17.8826
rfingers 7.12502
rthumb 14.9739 -11.5561
lclavicle -6.16232e-015 2.14687e-014
lhumerus -28.5937 -2.43369 85.9654
lradius 61.091
lwrist 2.16645
lhand -21.1326 16.4937
lfingers 7.12502
lthumb 5.2463 46.4087
rfemur -50.318 3.54539 21.9765
rtibia 51.1884
rfoot -21.0548 -9.04446
rtoes -0.290841
lfemur -51.0568 -0.0140373 -22.744
ltibia 49.584
lfoot -22.0653 2.10818
ltoes 0.956275
89
root 1.10013 16.7513 -15.6365 24.6782 -1.14606 0.217467
lowerback 18.7934 -0.256261 -0.252454
upperback 0.951897 -0.179572 2.11363
thorax -9.51743 -0.021494 2.49628
lowerneck -20.2317 -3.70118 -8.92669
upperneck 20.3055 -3.72062 5.66809
head 10.0954 -1.7431 2.94186
rclavicle 7.55382e-015 -1.19271e-015
rhumerus -28.3533 3.57133 -85.0898
rradius 69.1754
rwrist -4.98188
rhand -10.9737 18.3042
rfingers 7.12502
rthumb 15.0458 -11.1291
lclavicle 7.55382e-015 -1.19271e-015
lhumerus -28.0779 -2.93468 86.1218
lradius 61.1737
lwrist 2.87199
lhand -21.1864 16.7959
lfingers 7.12502
lthumb 5.19437 46.7122
rfemur -50.6555 2.98429 21.9897
rtibia 52.1752
rfoot -21.5887 -9.63277
rtoes -0.385312
lfemur -51.4451 -0.60681 -22.7813
ltibia 50.4086
lfoot -22.4797 1.85746
ltoes 0.501322
90
root 1.10237 16.6462 -15.6725 26.1363 -2.05695 -0.230103
lowerback 18.271 0.208246 -0.537073
upperback 0.715425 0.377982 2.18883
thorax -9.51452 0.258793 2.59127
lowerneck -20.1932 -3.74848 -9.09991
upperneck 19.8744 -3.75689 5.81496
head 9.94413 -1.75257 3.01178
rclavicle -3.97569e-015 1.31198e-014
rhumerus -28.0341 3.68851 -84.8565
rradius 69.1472
rwrist -4.91786
rhand -11.4253 18.6698
rfingers 7.12502
rthumb 14.6107 -10.7956
lclavicle -3.97569e-015 1.31198e-014
lhumerus -27.4786 -3.26173 86.295
lradius 61.0463
lwrist 3.27619
lhand -19.5973 22.1438
lfingers 7.12502
lthumb 6.7286 52.0169
rfemur -53.2741 3.92658 22.0169
rtibia 53.3197
rfoot -21.4882 -9.56249
rtoes -0.489639
lfemur -53.9511 0.147836 -22.6845
ltibia 51.5768
lfoot -22.6222 2.19232
ltoes -0.271297
91
root 1.09025 16.6265 -15.6348 25.8058 -1.26023 0.271084
lowerback 19.1533 -0.0813989 -0.57772
upperback 0.868793 -0.00783497 2.18692
thorax -9.81795 0.0802593 2.7242
lowerneck -20.0328 -3.72628 -9.25702
upperneck 19.5369 -3.74788 6.09165
head 9.8029 -1.72782 3.13393
rclavicle -2.38542e-015 -1.70955e-014
rhumerus -28.0534 3.78927 -84.8356
rradius 69.2189
rwrist -4.86406
rhand -11.679 18.7889
rfingers 7.12502
rthumb 14.3663 -10.694
lclavicle -2.38542e-015 -1.70955e-014
lhumerus -27.2074 -3.3942 86.2073
lradius 60.9873
lwrist 3.09116
lhand -19.4254 23.292
lfingers 7.12502
lthumb 6.89455 53.1598
rfemur -53.0924 3.35012 21.8377
rtibia 54.2412
rfoot -22.1961 -10.0211
rtoes -0.103926
lfemur -53.7858 -0.393566 -22.9471
ltibia 52.2788
lfoot -23.1338 2.06194
ltoes -1.06863
